<svg width="22" height="22" viewBox="0 0 22 22" fill="none" xmlns="http://www.w3.org/2000/svg">
<circle cx="11" cy="11" r="11" fill="#979797"/>
<circle cx="11" cy="11" r="11" stroke="white"/>
<mask id="mask0_16795_129431" style="mask-type:alpha" maskUnits="userSpaceOnUse" x="3" y="3" width="16" height="16">
<rect x="3.22852" y="3.22852" width="15.543" height="15.543" fill="#D9D9D9"/>
</mask>
<g mask="url(#mask0_16795_129431)">
<path d="M13.1049 6.46667C12.8783 6.46667 12.6867 6.38842 12.5302 6.23191C12.3737 6.0754 12.2954 5.88381 12.2954 5.65715C12.2954 5.43048 12.3737 5.23889 12.5302 5.08238C12.6867 4.92587 12.8783 4.84762 13.1049 4.84762C13.3316 4.84762 13.5232 4.92587 13.6797 5.08238C13.8362 5.23889 13.9145 5.43048 13.9145 5.65715C13.9145 5.88381 13.8362 6.0754 13.6797 6.23191C13.5232 6.38842 13.3316 6.46667 13.1049 6.46667ZM13.1049 17.1525C12.8783 17.1525 12.6867 17.0742 12.5302 16.9177C12.3737 16.7612 12.2954 16.5696 12.2954 16.3429C12.2954 16.1163 12.3737 15.9247 12.5302 15.7682C12.6867 15.6117 12.8783 15.5334 13.1049 15.5334C13.3316 15.5334 13.5232 15.6117 13.6797 15.7682C13.8362 15.9247 13.9145 16.1163 13.9145 16.3429C13.9145 16.5696 13.8362 16.7612 13.6797 16.9177C13.5232 17.0742 13.3316 17.1525 13.1049 17.1525ZM15.6954 8.73336C15.4688 8.73336 15.2772 8.6551 15.1207 8.49859C14.9642 8.34209 14.8859 8.1505 14.8859 7.92383C14.8859 7.69716 14.9642 7.50557 15.1207 7.34906C15.2772 7.19255 15.4688 7.1143 15.6954 7.1143C15.9221 7.1143 16.1137 7.19255 16.2702 7.34906C16.4267 7.50557 16.505 7.69716 16.505 7.92383C16.505 8.1505 16.4267 8.34209 16.2702 8.49859C16.1137 8.6551 15.9221 8.73336 15.6954 8.73336ZM15.6954 14.8858C15.4688 14.8858 15.2772 14.8075 15.1207 14.651C14.9642 14.4945 14.8859 14.3029 14.8859 14.0763C14.8859 13.8496 14.9642 13.658 15.1207 13.5015C15.2772 13.345 15.4688 13.2667 15.6954 13.2667C15.9221 13.2667 16.1137 13.345 16.2702 13.5015C16.4267 13.658 16.505 13.8496 16.505 14.0763C16.505 14.3029 16.4267 14.4945 16.2702 14.651C16.1137 14.8075 15.9221 14.8858 15.6954 14.8858ZM16.6669 11.8096C16.4402 11.8096 16.2486 11.7313 16.0921 11.5748C15.9356 11.4183 15.8573 11.2267 15.8573 11C15.8573 10.7734 15.9356 10.5818 16.0921 10.4253C16.2486 10.2688 16.4402 10.1905 16.6669 10.1905C16.8935 10.1905 17.0851 10.2688 17.2416 10.4253C17.3981 10.5818 17.4764 10.7734 17.4764 11C17.4764 11.2267 17.3981 11.4183 17.2416 11.5748C17.0851 11.7313 16.8935 11.8096 16.6669 11.8096ZM11.0002 17.4763C10.1043 17.4763 9.26237 17.3063 8.47443 16.9663C7.68649 16.6263 7.00109 16.1648 6.41822 15.582C5.83536 14.9991 5.37393 14.3137 5.03393 13.5258C4.69393 12.7378 4.52393 11.8959 4.52393 11C4.52393 10.1042 4.69393 9.26225 5.03393 8.47431C5.37393 7.68637 5.83536 7.00096 6.41822 6.4181C7.00109 5.83524 7.68649 5.37381 8.47443 5.03381C9.26237 4.6938 10.1043 4.5238 11.0002 4.5238V5.81905C9.5538 5.81905 8.32872 6.32096 7.3249 7.32478C6.32108 8.32859 5.81917 9.55368 5.81917 11C5.81917 12.4464 6.32108 13.6715 7.3249 14.6753C8.32872 15.6791 9.5538 16.181 11.0002 16.181V17.4763ZM11.0002 12.2953C10.644 12.2953 10.339 12.1685 10.0854 11.9148C9.83174 11.6612 9.70492 11.3562 9.70492 11C9.70492 10.9461 9.70761 10.8894 9.71301 10.83C9.71841 10.7707 9.7319 10.714 9.75349 10.66L8.40967 9.31622L9.31634 8.40955L10.6602 9.75336C10.7033 9.74257 10.8167 9.72638 11.0002 9.70479C11.3564 9.70479 11.6613 9.83162 11.9149 10.0853C12.1686 10.3389 12.2954 10.6438 12.2954 11C12.2954 11.3562 12.1686 11.6612 11.9149 11.9148C11.6613 12.1685 11.3564 12.2953 11.0002 12.2953Z" fill="white"/>
</g>
</svg>
